<svg width="138" height="30" viewBox="0 0 138 30" fill="none" xmlns="http://www.w3.org/2000/svg">
<g clip-path="url(#clip0_103_6116)">
<path d="M128.254 17.3068V9.29533H133.463V5.60313H128.254V0.36084L124.001 1.5799V5.60138H120.869V9.29358H124.001V17.3366C124.001 22.5123 128.254 24.4565 133.627 22.9414V18.7886C129.935 20.1075 128.254 18.9199 128.254 17.305" fill="#F26D84"/>
<path d="M84.5387 5.34207C82.2967 5.34207 80.5505 6.16529 79.2964 7.48418V5.6048H75.0104V19.4435C74.6776 19.5154 74.3343 19.5556 73.984 19.5556C71.8524 19.5556 70.5371 18.7675 70.5265 16.5238V5.60655H66.2406V7.51921C64.9882 6.20032 63.2087 5.31054 60.9983 5.31054C56.2517 5.31054 52.3283 9.26547 52.3283 14.3431C52.3283 15.6428 52.6085 16.8863 53.1059 18.0143C52.7311 18.4137 52.2985 18.7307 51.8028 18.9549C51.2388 19.2123 50.5925 19.5224 49.8621 19.5224H49.8586C47.8479 19.659 46.9108 18.517 46.9108 17.3102V9.29875H52.1198V5.60655H46.9108V0.364258L42.6581 1.58331V5.60655H39.5264V9.29875H42.6581V17.3435C42.6581 17.8724 42.7037 18.3681 42.7895 18.8305C42.0311 19.2894 41.1518 19.5574 40.2183 19.5574C38.0867 19.5574 36.7713 18.7692 36.7608 16.5255V5.6083H32.4748V7.52096C31.2225 6.20207 29.4429 5.3123 27.2325 5.3123C22.4877 5.3123 18.5625 9.26722 18.5625 14.3449C18.5625 19.4225 22.4859 23.3442 27.2325 23.3442C29.4429 23.3442 31.2225 22.4877 32.4748 21.2021C32.4748 21.2021 33.0458 20.6854 33.6623 20.0058C35.0005 22.0901 37.0638 23.4493 39.7909 23.4493C41.6458 23.4493 43.1976 22.8432 44.3886 21.8869C45.5096 22.9361 47.1105 23.4615 48.9934 23.4493C49.7798 23.444 50.617 23.3442 51.4875 23.148C51.7485 23.0709 52.013 22.9746 52.2827 22.8537C53.1357 22.4719 54.0413 21.8519 55.0659 20.857C56.623 22.3878 58.7126 23.3424 60.9948 23.3424C63.277 23.3424 64.9847 22.4859 66.2371 21.2003C66.2371 21.2003 66.8081 20.6836 67.4246 20.004C68.7628 22.0883 70.826 23.4475 73.5532 23.4475C74.0611 23.4475 74.5463 23.4002 75.0087 23.3144V29.9999H79.2946V21.132C80.5487 22.4842 82.3283 23.3407 84.5369 23.3407C86.3287 23.3407 88.0032 22.7819 89.3939 21.8133C90.4501 21.0795 91.3398 20.1074 91.9949 18.9671C92.7656 17.6272 93.2087 16.0509 93.2087 14.3431C93.2087 9.46515 89.2853 5.34382 84.5387 5.34382V5.34207ZM32.2384 16.5255H32.2296C32.2296 16.5255 32.2296 16.5325 32.2313 16.536C31.4046 18.2438 29.6514 19.4523 27.6616 19.4523C24.7611 19.4523 22.584 17.1123 22.584 14.3431C22.584 11.574 24.7611 9.20067 27.6616 9.20067C30.5622 9.20067 32.7393 11.574 32.7393 14.3431C32.7393 15.119 32.5589 15.8582 32.2384 16.5255ZM66.0024 16.5255C66.0024 16.5255 65.9989 16.5325 65.9971 16.536C65.1704 18.2438 63.4171 19.4523 61.4274 19.4523C58.5269 19.4523 56.3515 17.1123 56.3515 14.3431C56.3515 11.574 58.5286 9.20067 61.4274 9.20067C64.3262 9.20067 66.5033 11.574 66.5033 14.3431C66.5033 15.119 66.3229 15.8582 66.0024 16.5255V16.5255ZM88.7423 16.4537C88.3658 17.3049 87.7685 18.0406 87.0118 18.5748C86.2009 19.1458 85.2078 19.4856 84.1096 19.4856C81.3071 19.4856 79.0337 17.1123 79.0337 14.3431C79.0337 11.574 81.3422 9.20067 84.1096 9.20067C86.877 9.20067 89.1855 11.574 89.1855 14.3431C89.1855 15.0893 89.0278 15.8039 88.7423 16.452" fill="#F26D84"/>
<path d="M107.521 14.6005C107.521 17.2698 105.808 19.3786 103.204 19.3786C101.128 19.3786 99.3487 17.797 99.3487 15.2608V5.60645H95.0645V16.3818C95.0645 20.7641 98.557 23.3668 102.347 23.3668C104.687 23.3668 106.4 22.3457 107.521 21.0934V23.0708H111.805V5.60645H107.521V14.6022V14.6005Z" fill="#F26D84"/>
<path d="M19.9113 0H14.4395L4.48389 11.3744V0H0V23.0763H4.48389V17.34L7.51576 13.9456L14.7022 23.0763H20.1757L10.418 10.6492L19.9113 0Z" fill="#F26D84"/>
<path d="M119.139 0H114.854V23.0763H119.139V0Z" fill="#F26D84"/>
<path d="M137.886 24.7943C137.886 25.6158 137.226 26.2691 136.385 26.2691C135.544 26.2691 134.875 25.6176 134.875 24.7943C134.875 23.9711 135.546 23.3301 136.394 23.3301C137.241 23.3301 137.886 23.9729 137.886 24.7943V24.7943ZM135.252 24.7943C135.252 25.4459 135.742 25.9644 136.395 25.9644C137.029 25.9731 137.513 25.4459 137.513 24.8031C137.513 24.1603 137.031 23.6243 136.378 23.6243C135.724 23.6243 135.252 24.1515 135.252 24.7943V24.7943ZM136.154 25.5528H135.814V24.0885C135.947 24.071 136.136 24.0447 136.376 24.0447C136.653 24.0447 136.777 24.0885 136.877 24.1603C136.966 24.2234 137.029 24.3302 137.029 24.4738C137.029 24.6525 136.894 24.7681 136.726 24.8224V24.8399C136.87 24.8837 136.94 25.001 136.986 25.1972C137.031 25.4214 137.066 25.5002 137.092 25.5545H136.735C136.691 25.5002 136.663 25.3758 136.62 25.1972C136.593 25.0448 136.504 24.9748 136.316 24.9748H136.155V25.5545L136.154 25.5528ZM136.162 24.7313H136.323C136.511 24.7313 136.663 24.6682 136.663 24.5176C136.663 24.3827 136.565 24.2934 136.352 24.2934C136.262 24.2934 136.199 24.3022 136.164 24.3109V24.7313H136.162Z" fill="#F26D84"/>
</g>
<defs>
<clipPath id="clip0_103_6116">
<rect width="137.887" height="30" fill="white"/>
</clipPath>
</defs>
</svg>
